<svg width="91" height="35" viewBox="0 0 91 35" fill="none" xmlns="http://www.w3.org/2000/svg">
<path d="M18.6021 0.92041C18.2489 1.04574 17.9014 1.18815 17.5596 1.34766C17.2178 1.49577 16.8874 1.65527 16.5684 1.82617C17.2064 2.37305 17.7191 3.05094 18.1064 3.85986C18.5052 4.66878 18.7046 5.60303 18.7046 6.6626C18.7046 7.52848 18.5907 8.32601 18.3628 9.05518C18.1463 9.78434 17.8387 10.411 17.4399 10.9351C17.0412 11.4591 16.5684 11.8693 16.0215 12.1655C15.486 12.4618 14.8993 12.6099 14.2612 12.6099C13.7941 12.6099 13.3327 12.5301 12.877 12.3706C12.4212 12.2111 12.0111 11.9661 11.6465 11.6357C11.2933 11.3053 11.0028 10.8952 10.7749 10.4053C10.5584 9.90397 10.4502 9.31152 10.4502 8.62793C10.4502 7.86458 10.5755 7.14111 10.8262 6.45752C11.0768 5.76253 11.4129 5.12451 11.8345 4.54346C12.2674 3.95101 12.7687 3.41553 13.3384 2.93701C13.908 2.4471 14.5062 2.01986 15.1328 1.65527C14.8024 1.49577 14.4435 1.37044 14.0562 1.2793C13.6802 1.17676 13.2928 1.12549 12.894 1.12549C12.1991 1.12549 11.4585 1.25651 10.6724 1.51855C9.88623 1.7806 9.10579 2.17367 8.33105 2.69775C7.56771 3.22184 6.83285 3.87126 6.12646 4.646C5.43148 5.40934 4.81055 6.30371 4.26367 7.3291C3.72819 8.35449 3.30094 9.49951 2.98193 10.7642C2.66292 12.0288 2.50342 13.4131 2.50342 14.917C2.50342 16.4437 2.72559 17.8906 3.16992 19.2578C3.61426 20.625 4.26367 21.827 5.11816 22.8638C5.97266 23.9006 7.02083 24.7209 8.2627 25.3247C9.51595 25.9285 10.9458 26.2305 12.5522 26.2305C13.4865 26.2305 14.3979 26.0881 15.2866 25.8032C16.1867 25.5298 17.0355 25.1481 17.833 24.6582C18.6305 24.1569 19.3654 23.5645 20.0376 22.8809C20.7098 22.1859 21.2909 21.4339 21.7808 20.625L22.3105 20.9326C21.7637 21.9466 21.1029 22.8524 20.3281 23.6499C19.5648 24.4474 18.716 25.1253 17.7817 25.6836C16.8475 26.2419 15.8506 26.6691 14.791 26.9653C13.7314 27.2616 12.6434 27.4097 11.5269 27.4097C9.92041 27.4097 8.43929 27.1248 7.0835 26.5552C5.7277 25.9969 4.5542 25.1994 3.56299 24.1626C2.58317 23.1258 1.81413 21.8783 1.25586 20.4199C0.708984 18.9502 0.435547 17.3153 0.435547 15.5151C0.435547 13.8859 0.612142 12.3877 0.965332 11.0205C1.31852 9.64193 1.80273 8.39437 2.41797 7.27783C3.0332 6.1613 3.74528 5.18148 4.5542 4.33838C5.37451 3.48389 6.24609 2.77181 7.16895 2.20215C8.0918 1.62109 9.04313 1.18815 10.0229 0.90332C11.0028 0.607096 11.9598 0.458984 12.894 0.458984C13.4067 0.458984 13.908 0.538737 14.3979 0.698242C14.8993 0.846354 15.3664 1.05143 15.7993 1.31348C16.255 1.09701 16.7108 0.92041 17.1665 0.783691C17.6222 0.646973 18.0666 0.538737 18.4995 0.458984L18.6021 0.92041ZM18.0381 6.62842C18.0381 5.69417 17.8501 4.85107 17.4741 4.09912C17.1095 3.33577 16.6082 2.70915 15.9702 2.21924C15.4119 2.58382 14.8879 3.00537 14.3979 3.48389C13.9194 3.95101 13.5036 4.4751 13.1504 5.05615C12.7972 5.62581 12.5181 6.25244 12.313 6.93604C12.1193 7.60824 12.0225 8.33171 12.0225 9.10645C12.0225 9.5166 12.0737 9.89827 12.1763 10.2515C12.2902 10.5933 12.4497 10.8895 12.6548 11.1401C12.8599 11.3908 13.1105 11.5902 13.4067 11.7383C13.703 11.875 14.0334 11.9434 14.3979 11.9434C15.0132 11.9434 15.5487 11.7668 16.0044 11.4136C16.4601 11.0604 16.8361 10.6217 17.1323 10.0977C17.4399 9.56217 17.6678 8.98682 17.8159 8.37158C17.964 7.74495 18.0381 7.1639 18.0381 6.62842ZM28.5312 23.4619C29.1693 23.4619 29.7788 23.2284 30.3599 22.7612C30.9523 22.2941 31.4137 21.6162 31.7441 20.7275H31.6074C30.901 20.7275 30.2459 20.6079 29.6421 20.3687C29.0496 20.1294 28.5312 19.799 28.0869 19.3774C27.654 18.9445 27.3122 18.4318 27.0615 17.8394C26.8109 17.2355 26.6855 16.5747 26.6855 15.8569C26.6855 15.4582 26.7368 15.0537 26.8394 14.6436C26.9533 14.2334 27.1242 13.8688 27.3521 13.5498C27.5799 13.2194 27.8761 12.9517 28.2407 12.7466C28.6053 12.5415 29.0382 12.439 29.5396 12.439C29.9497 12.439 30.3542 12.5244 30.7529 12.6953C31.1517 12.8548 31.5106 13.134 31.8296 13.5327C32.1486 13.9315 32.4049 14.4727 32.5986 15.1562C32.8037 15.8285 32.9062 16.6829 32.9062 17.7197C32.9062 18.1071 32.8892 18.4945 32.855 18.8818C32.8208 19.2578 32.7581 19.6281 32.667 19.9927C33.1113 19.9129 33.5044 19.7705 33.8462 19.5654C34.1994 19.3604 34.507 19.1154 34.769 18.8306C35.0425 18.5343 35.2817 18.2039 35.4868 17.8394C35.6919 17.4634 35.8799 17.0646 36.0508 16.6431L36.7173 16.814C36.478 17.4634 36.1989 18.016 35.8799 18.4717C35.5723 18.9274 35.2362 19.3091 34.8716 19.6167C34.5184 19.9243 34.1424 20.1636 33.7437 20.3345C33.3563 20.494 32.9518 20.6022 32.5303 20.6592C32.3708 21.2174 32.16 21.7415 31.8979 22.2314C31.6359 22.7214 31.3169 23.1486 30.9409 23.5132C30.5649 23.8778 30.1263 24.1683 29.625 24.3848C29.1351 24.5898 28.5825 24.6924 27.9673 24.6924C27.4546 24.6924 26.9362 24.5898 26.4121 24.3848C25.8994 24.1683 25.4323 23.8436 25.0107 23.4106C24.6006 22.9663 24.2645 22.4137 24.0024 21.7529C23.7518 21.0807 23.6265 20.2832 23.6265 19.3604C23.6265 18.7565 23.6948 18.1641 23.8315 17.583C23.9797 17.002 24.179 16.4551 24.4297 15.9424C24.6917 15.4183 24.9993 14.9341 25.3525 14.4897C25.7057 14.034 26.0874 13.641 26.4976 13.3105L26.7539 13.7378C26.4919 13.9771 26.2412 14.2733 26.002 14.6265C25.7627 14.9797 25.5462 15.3727 25.3525 15.8057C25.1589 16.2272 25.005 16.6772 24.8911 17.1558C24.7772 17.6229 24.7202 18.09 24.7202 18.5571C24.7202 19.48 24.8341 20.2547 25.062 20.8813C25.3013 21.508 25.6032 22.015 25.9678 22.4023C26.3324 22.7783 26.7425 23.0518 27.1982 23.2227C27.654 23.3822 28.0983 23.4619 28.5312 23.4619ZM29.5054 13.1055C29.1978 13.1055 28.9129 13.1738 28.6509 13.3105C28.3888 13.4359 28.161 13.6125 27.9673 13.8403C27.7736 14.0682 27.6198 14.3416 27.5059 14.6606C27.3919 14.9797 27.335 15.3328 27.335 15.7202C27.335 16.3924 27.4489 16.9963 27.6768 17.5317C27.9046 18.0672 28.2122 18.5229 28.5996 18.8989C28.9984 19.2749 29.4598 19.5654 29.9839 19.7705C30.508 19.9642 31.0719 20.061 31.6758 20.061H32.0005C32.0916 19.7078 32.1543 19.3376 32.1885 18.9502C32.2227 18.5628 32.2397 18.1413 32.2397 17.6855C32.217 16.8083 32.1258 16.0791 31.9663 15.498C31.8182 14.9056 31.6245 14.4328 31.3853 14.0796C31.146 13.7264 30.8612 13.4757 30.5308 13.3276C30.2118 13.1795 29.87 13.1055 29.5054 13.1055ZM42.7329 4.03076C42.7329 4.89665 42.5734 5.8195 42.2544 6.79932C41.9468 7.77913 41.5423 8.79313 41.041 9.84131C40.5397 10.8895 39.9701 11.9604 39.332 13.0542C38.7054 14.1366 38.0788 15.2132 37.4521 16.2842C37.3268 17.3438 37.2072 18.3976 37.0933 19.4458C36.9907 20.494 36.8996 21.4909 36.8198 22.4365C36.7515 23.3708 36.6945 24.231 36.6489 25.0171C36.6034 25.8032 36.5806 26.464 36.5806 26.9995C36.5806 28.0933 36.6318 29.0731 36.7344 29.939C36.8483 30.8162 37.0135 31.5568 37.23 32.1606C37.4578 32.7759 37.7313 33.243 38.0503 33.562C38.3807 33.8924 38.7681 34.0576 39.2124 34.0576C39.4631 34.0576 39.6738 33.9779 39.8447 33.8184C40.0156 33.6589 40.158 33.4538 40.272 33.2031C40.3859 32.9525 40.4714 32.6676 40.5283 32.3486C40.5853 32.0296 40.6252 31.7106 40.6479 31.3916C40.6821 31.0726 40.6992 30.7707 40.6992 30.4858C40.7106 30.201 40.7163 29.9618 40.7163 29.7681C40.7163 28.492 40.6309 27.2729 40.46 26.1108C40.2891 24.9601 40.0783 23.9689 39.8276 23.1372H39.6909C39.4175 23.1372 39.1554 23.103 38.9048 23.0347C38.6655 22.9549 38.4491 22.8467 38.2554 22.71C38.0617 22.5732 37.9079 22.4137 37.7939 22.2314C37.68 22.0492 37.623 21.8498 37.623 21.6333C37.623 21.3257 37.7142 21.0636 37.8965 20.8472C38.0902 20.6307 38.3294 20.5225 38.6143 20.5225C38.9674 20.5225 39.3035 20.6934 39.6226 21.0352C39.9416 21.3656 40.2321 21.8099 40.4941 22.3682C40.9499 22.1859 41.3657 21.8669 41.7417 21.4111C42.1291 20.9554 42.4766 20.4484 42.7842 19.8901C43.0918 19.3205 43.3595 18.7451 43.5874 18.1641C43.8267 17.583 44.0317 17.076 44.2026 16.6431L44.8691 16.814C44.6868 17.3039 44.4704 17.8621 44.2197 18.4888C43.9691 19.104 43.6785 19.7078 43.3481 20.3003C43.0177 20.8813 42.6361 21.4168 42.2031 21.9067C41.7816 22.3853 41.2974 22.7271 40.7505 22.9321C40.9328 23.4106 41.098 23.929 41.2461 24.4873C41.3942 25.0342 41.5195 25.5981 41.6221 26.1792C41.736 26.7603 41.8215 27.3413 41.8784 27.9224C41.9354 28.5034 41.9639 29.0674 41.9639 29.6143C41.9639 30.3434 41.9012 31.0213 41.7759 31.6479C41.6619 32.2746 41.4854 32.8158 41.2461 33.2715C41.0182 33.7386 40.7277 34.1032 40.3745 34.3652C40.0327 34.6273 39.6283 34.7583 39.1611 34.7583C38.5345 34.7583 37.999 34.6045 37.5547 34.2969C37.1217 34.0007 36.7572 33.6019 36.4609 33.1006C36.1647 32.5993 35.9312 32.0296 35.7603 31.3916C35.5894 30.765 35.4583 30.1213 35.3672 29.4604C35.2874 28.7996 35.2362 28.1502 35.2134 27.5122C35.1906 26.8856 35.1792 26.3273 35.1792 25.8374C35.1792 24.7095 35.2305 23.4448 35.333 22.0435C35.4355 20.6421 35.5723 19.2065 35.7432 17.7368C35.9141 16.2671 36.1021 14.8145 36.3071 13.3789C36.5236 11.932 36.7344 10.599 36.9395 9.37988C37.1559 8.14941 37.361 7.07845 37.5547 6.16699C37.7484 5.25553 37.9136 4.60042 38.0503 4.20166C38.1414 3.91683 38.2611 3.6263 38.4092 3.33008C38.5687 3.03385 38.7567 2.76611 38.9731 2.52686C39.1896 2.2876 39.4346 2.09391 39.708 1.9458C39.9928 1.79769 40.3175 1.72363 40.6821 1.72363C41.3088 1.72363 41.8044 1.92871 42.1689 2.33887C42.5449 2.74902 42.7329 3.31299 42.7329 4.03076ZM38.8877 5.43213C38.8307 5.72835 38.751 6.17839 38.6484 6.78223C38.5573 7.37467 38.4548 8.08105 38.3408 8.90137C38.2383 9.71029 38.1243 10.6104 37.999 11.6016C37.8737 12.5814 37.7484 13.5954 37.623 14.6436C38.2497 13.5726 38.8307 12.5529 39.3662 11.5845C39.9017 10.6047 40.3631 9.67611 40.7505 8.79883C41.1493 7.91016 41.4626 7.07845 41.6904 6.30371C41.9183 5.51758 42.0322 4.77132 42.0322 4.06494C42.0322 3.60921 41.9297 3.21615 41.7246 2.88574C41.5309 2.55534 41.2062 2.39014 40.7505 2.39014C40.4201 2.39014 40.141 2.50407 39.9131 2.73193C39.6966 2.9598 39.52 3.23324 39.3833 3.55225C39.2466 3.87126 39.1383 4.20736 39.0586 4.56055C38.9902 4.90234 38.9333 5.19287 38.8877 5.43213ZM38.3237 21.5991C38.3237 21.8156 38.4548 22.0207 38.7168 22.2144C38.9902 22.3966 39.3035 22.4992 39.6567 22.522C39.4972 22.089 39.332 21.7586 39.1611 21.5308C39.0016 21.3029 38.8421 21.189 38.6826 21.189C38.5915 21.189 38.506 21.2231 38.4263 21.2915C38.3579 21.3599 38.3237 21.4624 38.3237 21.5991ZM47.9624 24.7607C47.3813 24.7607 46.8231 24.6582 46.2876 24.4531C45.7521 24.248 45.2793 23.9404 44.8691 23.5303C44.4704 23.1087 44.1514 22.5846 43.9121 21.958C43.6729 21.3314 43.5532 20.5965 43.5532 19.7534C43.5532 18.728 43.7013 17.8166 43.9976 17.019C44.2938 16.2101 44.6698 15.5322 45.1255 14.9854C45.5926 14.4271 46.111 14.0055 46.6807 13.7207C47.2503 13.4245 47.8086 13.2764 48.3555 13.2764C49.0618 13.2764 49.6201 13.5099 50.0303 13.9771C50.4518 14.4442 50.6626 15.048 50.6626 15.7886C50.6626 16.4266 50.543 17.0076 50.3037 17.5317C50.0645 18.0444 49.7454 18.4888 49.3467 18.8647C48.9593 19.2293 48.5093 19.5142 47.9966 19.7192C47.4953 19.9243 46.9712 20.0269 46.4243 20.0269C46.1623 20.0269 45.9116 20.0155 45.6724 19.9927C45.4445 19.9585 45.2394 19.9243 45.0571 19.8901C45.1255 20.5965 45.2622 21.2061 45.4673 21.7188C45.6724 22.2314 45.9287 22.653 46.2363 22.9834C46.5439 23.3138 46.8857 23.5588 47.2617 23.7183C47.6491 23.8778 48.0479 23.9575 48.458 23.9575C48.9707 23.9575 49.4435 23.8322 49.8765 23.5815C50.3094 23.3309 50.7082 23.0062 51.0728 22.6074C51.4373 22.1973 51.7677 21.7301 52.064 21.2061C52.3716 20.682 52.645 20.1522 52.8843 19.6167C53.1235 19.0698 53.3343 18.54 53.5166 18.0273C53.7103 17.5033 53.8812 17.0418 54.0293 16.6431L54.6958 16.814C54.5477 17.1899 54.3711 17.6457 54.166 18.1812C53.9723 18.7166 53.7445 19.2806 53.4824 19.873C53.2204 20.4541 52.9128 21.0409 52.5596 21.6333C52.2064 22.2144 51.8076 22.7384 51.3633 23.2056C50.9189 23.6613 50.4119 24.0373 49.8423 24.3335C49.284 24.6183 48.6574 24.7607 47.9624 24.7607ZM48.3896 13.9429C47.9681 13.9429 47.5522 14.0796 47.1421 14.353C46.7433 14.6151 46.3844 14.9797 46.0654 15.4468C45.7464 15.9139 45.4844 16.4665 45.2793 17.1045C45.0856 17.7425 44.9888 18.4261 44.9888 19.1553C45.1369 19.2122 45.342 19.2635 45.604 19.3091C45.8774 19.3433 46.2078 19.3604 46.5952 19.3604C47.0054 19.3604 47.4098 19.2749 47.8086 19.104C48.2188 18.9217 48.5833 18.6768 48.9023 18.3691C49.2327 18.0501 49.4948 17.6742 49.6885 17.2412C49.8936 16.8083 49.9961 16.3354 49.9961 15.8228C49.9961 15.5721 49.9619 15.3328 49.8936 15.105C49.8252 14.8771 49.7227 14.6777 49.5859 14.5068C49.4492 14.3359 49.2783 14.1992 49.0732 14.0967C48.8796 13.9941 48.6517 13.9429 48.3896 13.9429ZM57.772 24.7607C57.1909 24.7607 56.6326 24.6582 56.0972 24.4531C55.5617 24.248 55.0889 23.9404 54.6787 23.5303C54.2799 23.1087 53.9609 22.5846 53.7217 21.958C53.4824 21.3314 53.3628 20.5965 53.3628 19.7534C53.3628 18.728 53.5109 17.8166 53.8071 17.019C54.1034 16.2101 54.4793 15.5322 54.9351 14.9854C55.4022 14.4271 55.9206 14.0055 56.4902 13.7207C57.0599 13.4245 57.6182 13.2764 58.165 13.2764C58.8714 13.2764 59.4297 13.5099 59.8398 13.9771C60.2614 14.4442 60.4722 15.048 60.4722 15.7886C60.4722 16.4266 60.3525 17.0076 60.1133 17.5317C59.874 18.0444 59.555 18.4888 59.1562 18.8647C58.7689 19.2293 58.3188 19.5142 57.8062 19.7192C57.3049 19.9243 56.7808 20.0269 56.2339 20.0269C55.9718 20.0269 55.7212 20.0155 55.4819 19.9927C55.2541 19.9585 55.049 19.9243 54.8667 19.8901C54.9351 20.5965 55.0718 21.2061 55.2769 21.7188C55.4819 22.2314 55.7383 22.653 56.0459 22.9834C56.3535 23.3138 56.6953 23.5588 57.0713 23.7183C57.4587 23.8778 57.8574 23.9575 58.2676 23.9575C58.7803 23.9575 59.2531 23.8322 59.686 23.5815C60.119 23.3309 60.5177 23.0062 60.8823 22.6074C61.2469 22.1973 61.5773 21.7301 61.8735 21.2061C62.1812 20.682 62.4546 20.1522 62.6938 19.6167C62.9331 19.0698 63.1439 18.54 63.3262 18.0273C63.5199 17.5033 63.6908 17.0418 63.8389 16.6431L64.5054 16.814C64.3573 17.1899 64.1807 17.6457 63.9756 18.1812C63.7819 18.7166 63.554 19.2806 63.292 19.873C63.0299 20.4541 62.7223 21.0409 62.3691 21.6333C62.016 22.2144 61.6172 22.7384 61.1729 23.2056C60.7285 23.6613 60.2215 24.0373 59.6519 24.3335C59.0936 24.6183 58.467 24.7607 57.772 24.7607ZM58.1992 13.9429C57.7777 13.9429 57.3618 14.0796 56.9517 14.353C56.5529 14.6151 56.194 14.9797 55.875 15.4468C55.556 15.9139 55.2939 16.4665 55.0889 17.1045C54.8952 17.7425 54.7983 18.4261 54.7983 19.1553C54.9465 19.2122 55.1515 19.2635 55.4136 19.3091C55.687 19.3433 56.0174 19.3604 56.4048 19.3604C56.8149 19.3604 57.2194 19.2749 57.6182 19.104C58.0283 18.9217 58.3929 18.6768 58.7119 18.3691C59.0423 18.0501 59.3044 17.6742 59.498 17.2412C59.7031 16.8083 59.8057 16.3354 59.8057 15.8228C59.8057 15.5721 59.7715 15.3328 59.7031 15.105C59.6348 14.8771 59.5322 14.6777 59.3955 14.5068C59.2588 14.3359 59.0879 14.1992 58.8828 14.0967C58.6891 13.9941 58.4613 13.9429 58.1992 13.9429ZM69.8203 3.99658C69.8203 4.8055 69.6722 5.69987 69.376 6.67969C69.0911 7.64811 68.7152 8.6849 68.248 9.79004C67.7923 10.8952 67.2739 12.0459 66.6929 13.2422C66.1232 14.4385 65.5592 15.6632 65.001 16.9165C64.9326 17.7596 64.8586 18.5571 64.7788 19.3091C64.7104 20.061 64.6421 20.756 64.5737 21.394C64.7446 20.9953 64.9383 20.5339 65.1548 20.0098C65.3826 19.4743 65.6333 18.9274 65.9067 18.3691C66.1802 17.8109 66.4764 17.264 66.7954 16.7285C67.1258 16.1816 67.4733 15.6974 67.8379 15.2759C68.2139 14.8429 68.6069 14.4954 69.0171 14.2334C69.4386 13.9714 69.883 13.8403 70.3501 13.8403C70.6691 13.8403 70.971 13.9087 71.2559 14.0454C71.5521 14.1821 71.8084 14.3701 72.0249 14.6094C72.2414 14.8372 72.4123 15.105 72.5376 15.4126C72.6629 15.7202 72.7256 16.0449 72.7256 16.3867C72.7256 16.9564 72.5946 17.4634 72.3325 17.9077C72.0705 18.3407 71.7344 18.7166 71.3242 19.0356C70.9255 19.3547 70.4754 19.6224 69.9741 19.8389C69.4728 20.0553 68.9829 20.2262 68.5044 20.3516C68.55 20.568 68.6468 20.8244 68.7949 21.1206C68.943 21.4168 69.1367 21.7017 69.376 21.9751C69.6266 22.2371 69.9229 22.465 70.2646 22.6587C70.6064 22.841 70.9881 22.9321 71.4097 22.9321C72.2983 22.9321 73.1357 22.4137 73.9219 21.377C74.708 20.3288 75.4884 18.7508 76.2632 16.6431L76.9297 16.814C76.5537 17.8394 76.1663 18.785 75.7676 19.6509C75.3688 20.5054 74.9359 21.2459 74.4688 21.8726C74.013 22.4992 73.5174 22.9891 72.9819 23.3423C72.4465 23.6955 71.8597 23.8721 71.2217 23.8721C70.971 23.8721 70.6805 23.8379 70.3501 23.7695C70.0311 23.7012 69.695 23.5588 69.3418 23.3423C69 23.1144 68.6582 22.7954 68.3164 22.3853C67.9746 21.9751 67.6613 21.4225 67.3765 20.7275C67.3423 20.6592 67.3081 20.5737 67.2739 20.4712C67.2511 20.3687 67.2397 20.2889 67.2397 20.2319C67.2397 20.0155 67.291 19.8674 67.3936 19.7876C67.4961 19.6965 67.6214 19.6338 67.7695 19.5996C67.929 19.5654 68.0999 19.5426 68.2822 19.5312C68.4645 19.5085 68.6411 19.4629 68.812 19.3945C69.6551 19.0641 70.276 18.5913 70.6748 17.9761C71.085 17.3494 71.29 16.6431 71.29 15.8569C71.29 15.3556 71.1818 15.0081 70.9653 14.8145C70.7489 14.6094 70.4982 14.5068 70.2134 14.5068C69.9855 14.5068 69.7576 14.5695 69.5298 14.6948C69.3019 14.8088 69.0968 14.9512 68.9146 15.1221C68.4474 15.5892 68.0088 16.1361 67.5986 16.7627C67.1999 17.3779 66.8296 18.0216 66.4878 18.6938C66.1574 19.3547 65.8555 20.0098 65.582 20.6592C65.32 21.2972 65.0921 21.8726 64.8984 22.3853C64.7161 22.8866 64.5737 23.2967 64.4712 23.6157C64.38 23.9347 64.3345 24.0942 64.3345 24.0942L63.668 23.9917C63.6566 23.8664 63.6509 23.7126 63.6509 23.5303C63.6395 23.3708 63.6338 23.1828 63.6338 22.9663C63.6338 22.7498 63.6338 22.4935 63.6338 22.1973C63.6338 21.5479 63.6452 20.7503 63.668 19.8047C63.6908 18.8477 63.7306 17.7824 63.7876 16.6089C63.856 15.424 63.9471 14.1423 64.061 12.7637C64.1864 11.3851 64.3459 9.94385 64.5396 8.43994C64.6991 7.20947 64.9041 6.17269 65.1548 5.32959C65.4168 4.48649 65.7074 3.80859 66.0264 3.2959C66.3454 2.77181 66.6815 2.39583 67.0347 2.16797C67.3879 1.9401 67.7467 1.82617 68.1113 1.82617C68.4076 1.82617 68.6639 1.88314 68.8804 1.99707C69.0968 2.111 69.2734 2.27051 69.4102 2.47559C69.5469 2.66927 69.6494 2.89714 69.7178 3.15918C69.7861 3.42122 69.8203 3.70036 69.8203 3.99658ZM68.2822 2.52686C67.9974 2.52686 67.7354 2.69206 67.4961 3.02246C67.2682 3.35286 67.0575 3.80859 66.8638 4.38965C66.6701 4.9707 66.4878 5.6543 66.3169 6.44043C66.1574 7.21517 66.0093 8.05827 65.8726 8.96973C65.7472 9.86979 65.6276 10.8154 65.5137 11.8066C65.3997 12.7865 65.2972 13.7663 65.2061 14.7461C65.4795 14.1536 65.77 13.5327 66.0776 12.8833C66.3853 12.2339 66.6815 11.5731 66.9663 10.9009C67.2625 10.2287 67.5417 9.56787 67.8037 8.91846C68.0771 8.25765 68.3107 7.62533 68.5044 7.02148C68.7095 6.41764 68.869 5.85938 68.9829 5.34668C69.1082 4.83398 69.1709 4.38395 69.1709 3.99658C69.1709 3.85986 69.1595 3.70605 69.1367 3.53516C69.1253 3.36426 69.0854 3.20475 69.0171 3.05664C68.9601 2.90853 68.8747 2.7832 68.7607 2.68066C68.6468 2.57812 68.4873 2.52686 68.2822 2.52686ZM82.8599 21.0522C82.5067 21.6903 82.1649 22.2201 81.8345 22.6416C81.5041 23.0632 81.1737 23.3993 80.8433 23.6499C80.5243 23.9006 80.1995 24.0771 79.8691 24.1797C79.5387 24.2822 79.1969 24.3335 78.8438 24.3335C78.5589 24.3335 78.2342 24.2879 77.8696 24.1968C77.505 24.1056 77.1576 23.9176 76.8271 23.6328C76.5081 23.3366 76.2347 22.915 76.0068 22.3682C75.7904 21.8213 75.6821 21.0864 75.6821 20.1636C75.6821 19.2407 75.7904 18.3748 76.0068 17.5659C76.2233 16.7456 76.4626 16.0278 76.7246 15.4126C77.0322 14.7062 77.3854 14.0511 77.7842 13.4473L78.4165 13.6523C78.4051 13.6637 78.3652 13.7663 78.2969 13.96C78.2399 14.1536 78.1602 14.4157 78.0576 14.7461C77.9665 15.0765 77.8639 15.4582 77.75 15.8911C77.6475 16.3241 77.5449 16.7855 77.4424 17.2754C77.3512 17.7539 77.2715 18.2438 77.2031 18.7451C77.1462 19.2464 77.1177 19.7306 77.1177 20.1978C77.1177 21.2687 77.3057 22.1175 77.6816 22.7441C78.069 23.3594 78.5703 23.667 79.1855 23.667C79.8691 23.667 80.5299 23.2739 81.168 22.4878C81.806 21.6903 82.4155 20.5794 82.9966 19.1553C83.0991 18.4945 83.2358 17.8792 83.4067 17.3096C83.589 16.7399 83.7656 16.2329 83.9365 15.7886C84.1188 15.3442 84.284 14.974 84.4321 14.6777C84.5802 14.3815 84.6885 14.1821 84.7568 14.0796L85.355 14.2163C85.1727 15.0708 85.0132 15.8398 84.8765 16.5234C84.7511 17.1956 84.6486 17.8052 84.5688 18.3521C84.4891 18.8989 84.4264 19.3888 84.3809 19.8218C84.3467 20.2433 84.3296 20.625 84.3296 20.9668C84.3296 21.6504 84.4378 22.1973 84.6543 22.6074C84.8708 23.0176 85.2069 23.2227 85.6626 23.2227C85.9702 23.2227 86.2664 23.1087 86.5513 22.8809C86.8361 22.653 87.1323 22.277 87.4399 21.7529C87.7476 21.2288 88.0723 20.5509 88.4141 19.7192C88.7559 18.8875 89.1432 17.8621 89.5762 16.6431L90.2427 16.814C90.049 17.2925 89.8553 17.8052 89.6616 18.3521C89.4679 18.8989 89.2572 19.4458 89.0293 19.9927C88.8128 20.5396 88.5793 21.0636 88.3286 21.5649C88.0894 22.0662 87.8159 22.5106 87.5083 22.8979C87.2121 23.2853 86.8874 23.5929 86.5342 23.8208C86.181 24.0487 85.7879 24.1626 85.355 24.1626C84.9448 24.1626 84.5859 24.0828 84.2783 23.9233C83.9707 23.7638 83.7087 23.5474 83.4922 23.2739C83.2871 23.0005 83.1276 22.6758 83.0137 22.2998C82.9111 21.9124 82.8599 21.4966 82.8599 21.0522Z" fill="white"/>
</svg>
